<?xml version="1.0" encoding="UTF-8" standalone="no"?>
<!-- Generator: Adobe Illustrator 16.0.0, SVG Export Plug-In . SVG Version: 6.00 Build 0)  -->

<svg
   xmlns:dc="http://purl.org/dc/elements/1.1/"
   xmlns:cc="http://creativecommons.org/ns#"
   xmlns:rdf="http://www.w3.org/1999/02/22-rdf-syntax-ns#"
   xmlns:svg="http://www.w3.org/2000/svg"
   xmlns="http://www.w3.org/2000/svg"
   xmlns:sodipodi="http://sodipodi.sourceforge.net/DTD/sodipodi-0.dtd"
   xmlns:inkscape="http://www.inkscape.org/namespaces/inkscape"
   version="1.1"
   id="Capa_1"
   x="0px"
   y="0px"
   width="16"
   height="16"
   viewBox="0 0 16 16"
   xml:space="preserve"
   sodipodi:docname="icon-email.svg"
   inkscape:version="0.92.4 (5da689c313, 2019-01-14)"><metadata
   id="metadata51"><rdf:RDF><cc:Work
       rdf:about=""><dc:format>image/svg+xml</dc:format><dc:type
         rdf:resource="http://purl.org/dc/dcmitype/StillImage" /><dc:title></dc:title></cc:Work></rdf:RDF></metadata><defs
   id="defs49" /><sodipodi:namedview
   pagecolor="#ffffff"
   bordercolor="#666666"
   borderopacity="1"
   objecttolerance="10"
   gridtolerance="10"
   guidetolerance="10"
   inkscape:pageopacity="0"
   inkscape:pageshadow="2"
   inkscape:window-width="1271"
   inkscape:window-height="760"
   id="namedview47"
   showgrid="false"
   inkscape:zoom="25.632621"
   inkscape:cx="7.4068351"
   inkscape:cy="6.1984896"
   inkscape:window-x="2444"
   inkscape:window-y="671"
   inkscape:window-maximized="0"
   inkscape:current-layer="g12"
   units="px" />
<g
   id="g14"
   transform="translate(0,-48)">
	<g
   id="g12">
		
		<g
   id="mail"
   transform="matrix(0.48484849,0,0,0.48484849,3.4538886,19.654753)">
			<g
   id="g9"
   style="stroke:#828282;stroke-opacity:1"
   transform="translate(2.1709556,1.8281712)">
				<path
   d="M 21.205399,62.1339 H -6.7946007 c -1.104,0 -2,0.896 -2,2 v 18 c 0,1.104 0.896,2 2,2 H 21.205399 c 1.104,0 2,-0.896 2,-2 v -18 c 0,-1.104 -0.896,-2 -2,-2 z m -1.795,2 -12.2049997,12 -12.109,-12 z m -26.2049997,18 v -16.994 l 9.589,9.589 -7.528,7.405 z m 4.985,0 6.081,-5.927 1.58,1.579 c 0.781,0.781 2.047,0.781 2.829,0 l 1.5309997,-1.531 6.081,5.879 z m 23.0149997,0 h -1.939 l -7.527,-7.405 9.466,-9.467 z"
   id="path7"
   style="fill:#828282;stroke:#828282;stroke-opacity:1"
   inkscape:connector-curvature="0" />
			</g>
		</g>
	</g>
</g>
<g
   id="g16"
   transform="translate(0,-48)">
</g>
<g
   id="g18"
   transform="translate(0,-48)">
</g>
<g
   id="g20"
   transform="translate(0,-48)">
</g>
<g
   id="g22"
   transform="translate(0,-48)">
</g>
<g
   id="g24"
   transform="translate(0,-48)">
</g>
<g
   id="g26"
   transform="translate(0,-48)">
</g>
<g
   id="g28"
   transform="translate(0,-48)">
</g>
<g
   id="g30"
   transform="translate(0,-48)">
</g>
<g
   id="g32"
   transform="translate(0,-48)">
</g>
<g
   id="g34"
   transform="translate(0,-48)">
</g>
<g
   id="g36"
   transform="translate(0,-48)">
</g>
<g
   id="g38"
   transform="translate(0,-48)">
</g>
<g
   id="g40"
   transform="translate(0,-48)">
</g>
<g
   id="g42"
   transform="translate(0,-48)">
</g>
<g
   id="g44"
   transform="translate(0,-48)">
</g>
</svg>